PathFileType	4	(X/Y/Z)	C:/Users/opensim2020/Desktop/walking_exp_matlab/subject06_walking17_straight_04.trc	
DataRate	CameraRate	NumFrames	NumMarkers	Units	OrigDataRate	OrigDataStartFrame	OrigNumFrames	
100.00	100.00	8	45	mm	100.00	4365	318	
Frame#	Time	LFHD			RFHD			LBHD			RBHD			C7			T10			CLAV			STRN			RBAK			LSHO			LUPA			LELB			LFRM			LWRA			LWRB			LFIN			RSHO			RUPA			RELB			RFRM			RWRA			RWRB			RFIN			LASI			RASI			LPSI			RPSI			LTHI			LKNE			LTIB			LANK			LHEE			LTOE			RTHI			RKNE			RTIB			RANK			RHEE			RTOE			*39			*40			*41			*42			*43			*44			
		X1	Y1	Z1	X2	Y2	Z2	X3	Y3	Z3	X4	Y4	Z4	X5	Y5	Z5	X6	Y6	Z6	X7	Y7	Z7	X8	Y8	Z8	X9	Y9	Z9	X10	Y10	Z10	X11	Y11	Z11	X12	Y12	Z12	X13	Y13	Z13	X14	Y14	Z14	X15	Y15	Z15	X16	Y16	Z16	X17	Y17	Z17	X18	Y18	Z18	X19	Y19	Z19	X20	Y20	Z20	X21	Y21	Z21	X22	Y22	Z22	X23	Y23	Z23	X24	Y24	Z24	X25	Y25	Z25	X26	Y26	Z26	X27	Y27	Z27	X28	Y28	Z28	X29	Y29	Z29	X30	Y30	Z30	X31	Y31	Z31	X32	Y32	Z32	X33	Y33	Z33	X34	Y34	Z34	X35	Y35	Z35	X36	Y36	Z36	X37	Y37	Z37	X38	Y38	Z38	X39	Y39	Z39	X40	Y40	Z40	X41	Y41	Z41	X42	Y42	Z42	X43	Y43	Z43	X44	Y44	Z44	X45	Y45	Z45	

80	0.790	1557.97681	897.75256	1672.34827	1427.40857	903.98102	1657.05237	1567.25220	1028.66199	1613.00208	1438.99512	1033.36951	1603.32947	1512.39307	1027.73413	1457.67273	1499.75000	1070.79553	1129.79736	1508.50671	918.45062	1379.07715	1513.89868	881.73413	1202.50903	1430.02820	1104.26746	1290.00427	1670.29736	967.74518	1410.34009	1752.01575	942.90942	1213.16553	1771.79846	924.12280	1103.03357	1789.49219	853.19812	970.02246	1736.07300	769.77509	877.79095	1785.57056	815.93640	856.53113	1778.68030	748.37646	794.65253	1349.50684	965.21527	1414.98718	1259.49695	1004.66144	1217.97461	1245.11182	995.57135	1096.62610	1225.79749	973.82379	978.64160	1253.84534	903.62903	843.76733	1214.87915	958.46210	841.98669	1210.31580	916.45636	769.07166	1601.83362	888.00256	964.89001	1381.47729	894.46881	979.84875	1574.89368	1047.17627	993.79993	1406.75952	1046.37183	997.00323	1643.38794	969.21021	650.88702	1617.59509	984.09967	487.74991	1596.88904	1052.11279	240.09663	1548.31213	1081.58435	71.15288	1501.46484	1121.56348	59.78327	1551.99280	938.41058	41.89101	1313.97241	880.07153	651.83081	1336.19312	837.26489	532.97095	1344.31506	897.76056	276.11551	1388.82593	922.29907	92.22945	1441.18311	954.84912	68.89915	1366.97791	778.87036	45.27288	1503.11804	1002.38361	1704.92212															 
81	0.800	1557.79919	891.27606	1671.83936	1427.29102	897.62421	1656.37073	1567.28650	1022.23260	1612.56628	1439.01526	1027.02856	1602.71533	1512.54211	1021.45508	1457.27185	1500.07507	1065.11072	1129.43518	1508.80676	912.27911	1378.51733	1514.40015	877.88519	1201.90515	1430.16345	1098.25635	1289.70044	1670.52527	961.66803	1409.84143	1752.23035	935.96466	1212.82385	1772.03296	916.11371	1102.90344	1789.47607	843.36298	970.95361	1735.51123	758.15906	880.27881	1784.79492	804.28815	857.93829	1777.73804	735.66504	797.28607	1349.76404	958.85693	1414.43335	1259.72534	998.83301	1217.61328	1245.49512	990.07007	1096.12366	1226.17261	968.55011	978.06561	1254.17676	898.66907	842.99591	1215.25867	953.50153	841.47827	1210.78259	911.32715	768.48676	1602.35925	882.26147	964.38110	1382.54553	890.03949	979.38171	1575.42139	1041.47681	993.15863	1407.29065	1040.74585	996.54688	1643.56372	964.27240	650.29187	1617.53833	979.60358	487.26294	1596.71179	1049.94897	240.07300	1548.32471	1081.19727	71.46880	1501.51172	1121.36218	60.29803	1551.85364	938.25989	41.84456	1314.07434	874.83026	651.44513	1336.80420	831.51080	532.73743	1344.39856	882.63489	273.93167	1388.65759	899.82312	89.14429	1440.51318	932.32074	65.09957	1369.42517	754.45074	45.70911	1503.03833	995.94324	1704.40381															 
82	0.810	1557.60583	884.79498	1671.29834	1427.10083	891.25751	1655.65161	1567.14685	1015.75623	1612.13647	1438.98950	1020.64874	1602.12817	1512.83313	1015.34778	1456.92139	1500.46753	1059.36316	1129.06653	1509.05762	906.16241	1377.90479	1514.82739	872.02887	1201.26099	1430.15320	1092.18604	1289.46631	1670.68359	955.58752	1409.38855	1752.27649	929.12427	1212.49182	1772.04224	908.25537	1102.64172	1789.07605	833.75031	971.77893	1734.93701	746.98590	882.74384	1783.85120	792.94940	859.35950	1776.74854	723.38678	799.82129	1349.79065	952.17773	1413.78662	1260.08008	992.70917	1216.95569	1245.83105	984.39563	1095.63318	1226.46216	963.15265	977.50226	1254.44971	893.24408	842.45459	1215.63403	948.30981	840.81464	1211.10339	906.36646	767.78674	1602.84509	876.44586	963.80737	1383.03833	884.21198	979.01129	1575.94446	1035.71155	992.50787	1407.83020	1034.98926	996.07428	1643.68945	959.41388	649.72485	1617.68140	975.08917	486.81735	1596.60986	1047.63513	240.04366	1548.34558	1080.92786	71.85515	1501.56396	1121.17114	60.86755	1551.69788	938.14777	41.80918	1314.35742	869.51862	650.64905	1337.37854	825.85419	532.31500	1344.56714	867.61389	271.96835	1388.35205	877.63678	86.71432	1438.20740	911.61438	63.25948	1372.41956	730.51666	46.19612	1502.86499	989.43665	1703.88574															 
83	0.820	1557.43298	878.31879	1670.72314	1426.92505	884.87555	1654.92322	1567.10181	1009.38055	1611.76318	1438.87329	1014.28693	1601.58545	1512.83203	1009.16840	1456.45093	1500.84998	1053.55505	1128.67957	1509.23669	899.96826	1377.28235	1515.25476	866.58783	1200.47400	1430.23950	1086.11206	1289.17090	1670.75098	949.53235	1408.94287	1752.27551	922.33051	1212.16162	1771.99780	900.56146	1102.42847	1788.32971	824.25238	972.45850	1734.22278	736.08875	885.11707	1782.38037	781.66028	860.37952	1775.58398	711.52161	802.21320	1349.97839	945.73120	1413.18066	1260.20801	986.57965	1216.43298	1246.09473	978.58850	1095.04663	1226.75415	957.59088	976.87781	1254.78369	888.03168	841.64862	1215.96265	943.12207	840.16101	1211.63733	901.05255	766.94910	1603.45105	870.90338	963.24164	1382.95227	877.16815	978.79333	1576.52258	1029.87842	991.94025	1408.47681	1029.07214	995.61212	1643.85840	954.50708	649.10034	1617.68750	970.57465	486.21484	1596.59680	1045.35913	240.02901	1548.29150	1080.64893	72.24179	1501.68408	1121.00610	61.44183	1551.55908	937.99811	41.70123	1314.27051	864.31763	650.27985	1337.98389	820.31323	531.79999	1344.78430	852.70441	270.32657	1387.24878	856.24420	85.01984	1439.09265	887.97070	59.50243	1374.52722	707.47656	47.14986	1502.60547	982.96356	1703.34436															 
84	0.830	1557.26868	871.83746	1670.12158	1426.74731	878.33331	1654.19153	1566.96838	1002.98737	1611.34644	1438.70349	1007.86176	1600.97461	1512.80322	1002.99127	1455.93518	1501.24451	1047.68616	1128.24646	1509.38696	893.81305	1376.66309	1515.58545	860.47955	1199.83289	1430.19312	1079.97449	1288.82703	1670.85022	943.53479	1408.53296	1752.18164	915.69458	1211.84924	1771.85010	893.09644	1102.21057	1787.88928	815.22919	973.21368	1733.52124	725.45325	887.60327	1781.34290	771.28973	861.97443	1774.25232	700.09003	804.54150	1350.14331	939.37506	1412.50732	1260.53406	980.34961	1215.80847	1246.28931	972.64709	1094.43066	1226.99390	951.89685	976.22772	1255.20215	882.73016	840.82434	1216.22583	937.79852	839.44708	1212.03967	895.98657	766.19995	1603.97998	865.16602	962.67218	1384.03394	872.39233	978.14520	1577.06299	1024.02734	991.35504	1409.07751	1023.04205	995.11163	1643.94885	949.55383	648.36951	1617.44507	966.12451	485.44397	1596.62561	1043.16113	239.95830	1548.31384	1080.21472	72.55817	1501.86377	1120.76294	61.98542	1551.50024	937.93445	41.58881	1314.37439	859.09698	649.44635	1338.56091	814.86243	531.11060	1344.83740	838.07349	269.07706	1387.22864	834.40991	83.59378	1438.32629	866.30933	57.67877	1376.58044	684.64954	48.39472	1502.35999	976.43158	1702.83313															 
85	0.840	1556.93982	865.37140	1669.55530	1426.50293	871.83600	1653.40735	1566.72620	996.58160	1610.92908	1438.59424	1001.52917	1600.44458	1512.80725	996.85156	1455.38989	1501.57593	1041.67639	1127.71582	1509.46448	887.67328	1376.05432	1515.87793	854.40088	1199.26550	1430.21655	1073.91260	1288.36084	1670.87134	937.48389	1408.15295	1752.01819	909.11469	1211.52539	1771.52832	885.88251	1101.90649	1787.18420	806.45398	973.87323	1732.69617	715.02527	889.98285	1779.91223	760.90314	863.24847	1772.79834	688.94098	806.78802	1350.27161	933.04297	1411.81067	1260.44434	973.79120	1215.19812	1246.47876	966.52710	1093.81458	1227.18494	946.11780	975.54260	1255.65454	877.38696	839.94617	1216.44482	932.26141	838.68768	1212.32471	890.83923	765.24622	1604.49561	859.45758	961.96332	1383.94751	864.96637	977.80005	1577.52002	1018.09155	990.80487	1409.54138	1017.09082	994.68573	1643.95068	944.48322	647.51117	1617.50671	961.62189	484.76114	1596.80627	1041.00940	239.99962	1548.51709	1079.87366	72.97148	1502.16638	1120.74438	62.77502	1551.47229	937.86761	41.42697	1314.19617	853.85059	648.88147	1339.07373	809.57733	530.26697	1344.76624	824.25806	268.08859	1386.86670	813.41138	82.76493	1438.36047	844.59436	56.12330	1378.28857	662.39526	49.94227	1502.05518	969.91760	1702.38879															 
86	0.850	1556.65918	858.85309	1668.85034	1426.27454	865.35687	1652.62341	1566.51477	990.19824	1610.56445	1438.35767	995.09082	1599.88477	1512.69189	990.67950	1454.80054	1501.77551	1035.68701	1127.17834	1509.55603	881.54541	1375.38391	1516.22021	848.35663	1198.57312	1430.33252	1067.75061	1287.81262	1670.88684	931.40222	1407.74121	1751.81396	902.69708	1211.11255	1771.21216	878.89801	1101.54871	1786.42139	797.89423	974.43506	1731.76428	704.92816	892.34998	1778.35962	750.69830	864.50348	1771.20496	678.02698	808.98950	1350.32300	926.70789	1411.05859	1260.47888	967.43774	1214.47327	1246.57483	960.40851	1093.11401	1227.34106	940.19043	974.78162	1256.06750	872.30011	838.88239	1216.56860	926.71167	837.90710	1212.81775	885.28937	764.32581	1605.01086	853.60529	961.14728	1384.45471	858.85242	977.35370	1577.86853	1012.18549	990.25208	1409.89880	1010.93683	994.14215	1644.24268	939.55322	646.76672	1617.59045	957.13275	484.08072	1596.94214	1038.90955	239.95868	1548.83752	1079.58374	73.54024	1502.52673	1120.59839	63.54626	1551.44434	937.81238	41.23462	1314.20361	848.58160	647.98535	1339.60693	804.39630	529.32916	1345.07434	810.57715	267.49457	1386.48071	793.13458	82.35020	1436.98950	824.38293	55.66204	1379.78381	640.74084	51.81451	1501.72314	963.37354	1701.82166															 
87	0.860	1556.31702	852.41559	1668.29541	1425.92297	858.89435	1651.83228	1566.22742	983.83148	1610.13513	1438.11084	988.79034	1599.35083	1512.57703	984.48999	1454.24414	1501.93188	1029.64978	1126.61194	1509.57080	875.38611	1374.73962	1516.57458	842.37677	1197.85791	1430.47888	1061.63953	1287.18018	1670.85474	925.36322	1407.28845	1751.58167	896.41309	1210.64258	1770.74707	872.14056	1101.10022	1785.51074	789.56580	974.90192	1730.72888	695.05658	894.66083	1777.05518	741.08905	866.12189	1769.35400	667.40881	811.11658	1350.30798	920.43866	1410.27698	1260.50757	961.01935	1213.78442	1246.61572	954.25787	1092.36340	1227.46716	934.26044	973.98553	1256.46692	866.85156	837.91699	1216.54956	921.06824	837.24896	1213.12537	879.85870	763.31592	1605.55042	848.05640	960.42029	1384.96912	852.48444	976.72986	1578.09595	1006.29797	989.65747	1410.03003	1004.81531	993.67340	1644.48352	934.60925	646.17963	1617.81189	952.60394	483.48724	1597.46643	1036.71838	239.96429	1549.26379	1079.22583	74.17402	1503.03210	1120.51807	64.53846	1551.44739	937.79852	40.98833	1314.16125	843.17651	647.00641	1340.50439	798.85425	528.29352	1345.34473	797.78577	266.91913	1386.25916	773.47900	82.33368	1436.59570	804.33209	55.36910	1380.93384	619.87366	54.17566	1501.30676	956.86755	1701.31799															 
